# xmcd
#
# Track frame offsets:
#	150
#	10622
#	24605
#	35140
#	46932
#	60485
#	74662
#	85847
#	98805
#	113355
#	126075
#	139027
#	153440
#	167027
#	179240
#	191300
#	205492
#	217102
#	230382
#	244422
#	256390
#	268100
#	280885
#	293095
#	307122
#
# Disc length: 4229 seconds
#
# Revision: 2
# Processed by: cddbd v1.5.2PL0 Copyright (c) Steve Scherf et al.
# Submitted via: audiograbber 1.83.01
#
DISCID=76108319
DTITLE=Various Artist - Flowers In The Wildwood - Women In Early Country Musi
DYEAR=2003
DGENRE=Country
TTITLE0=Wish I Was A Single Girl Again - Lulu Belle and Scotty
TTITLE1=Single Life - Roba Stanley
TTITLE2=I Left Her Standing There - Dezurik Sisters
TTITLE3=Flowers Blooming In The Wildwood - Coon Creek Girls
TTITLE4=She Came Rollin' Down The Mountain - The Aaron Sisters
TTITLE5=Just Another Broken Heart - The Carter Family
TTITLE6=Round-Up Time In Texas - Girls Of The Golden West
TTITLE7=We Are Climbing - Chuck Wagon Gang
TTITLE8=My Man's A Jolly Railroad Man - Moonshine Kate
TTITLE9=My Poncho Pony - Patsy Montana
TTITLE10=Lorena - Joe and Alma (The Kentucky Girls)
TTITLE11=All The Good Times Are Past and Gone - Fred and Gertrude Gossett
TTITLE12=Round Town Girls - Wanda and Ruth Neal
TTITLE13=Home-Coming Week - The Leatherman Sisters
TTITLE14=Brother, Be Ready For That Day - Grady and Hazel Cole
TTITLE15=On The Banks Of The Old Tennessee - Mr. and Mrs. J.W. Baker
TTITLE16=Kentucky Miner's Wife (Ragged Hungry Blues) Pt.1 - Aunt Molly Jackson
TTITLE17=Go To Sleep My Darling - Dezurik Sisters
TTITLE18=Walking In The King's Highway - The Carter Family
TTITLE19=My Loved Ones Are Waiting For Me - Southland's Ladies Quartette
TTITLE20=Little Birdie - Coon Creek Girls
TTITLE21=Big-Eyed Rabbit - Samantha Bumgarner and Eva Davis
TTITLE22=How'm I Doin'? - The Aaron Sisters With The Song-O-Pators
TTITLE23=Prayer - Wisdom Sisters
TTITLE24=With My Banjo On My Knee Blues - Louisiana Lou
EXTD=
EXTT0=
EXTT1=
EXTT2=
EXTT3=
EXTT4=
EXTT5=
EXTT6=
EXTT7=
EXTT8=
EXTT9=
EXTT10=
EXTT11=
EXTT12=
EXTT13=
EXTT14=
EXTT15=
EXTT16=
EXTT17=
EXTT18=
EXTT19=
EXTT20=
EXTT21=
EXTT22=
EXTT23=
EXTT24=
PLAYORDER=
